<svg xmlns="http://www.w3.org/2000/svg" width="506.000000pt" height="506.000000pt" version="1.0" viewBox="0 0 506.000000 506.000000"><path d="M230 4c-20.6 2.2-45.7 7.9-63.9 14.6C142.8 27.2 115 43.1 95.4 59 84.9 67.5 67 85.5 58.6 96c-28.8 35.9-46 75.6-53.2 123-2.5 16-2.5 52 0 68 6.3 41.6 20.1 76.7 42.7 109 40.2 57.4 99.3 93.6 170.9 104.7 16.1 2.4 51.9 2.4 68 0 71.6-11.1 130.7-47.3 170.9-104.7 22.2-31.8 35.7-65.7 42.3-106.2 3.1-19.1 3.1-54.5 0-73.6-7.9-48.5-25.9-88.1-57-125.2-26-31.1-64.5-58-103.6-72.5-12.9-4.8-37.1-10.8-51.6-13-13.3-1.9-45.6-2.8-58-1.5M103.5 181.1c.7.8 10.8 32.2 22.4 69.8 20.1 65 21 68.5 19.6 70.8-1.9 2.8-5.3 4.3-9.9 4.3-4.9 0-4.4.9-11.6-22.8l-3.1-10.2-26.2.2-26.2.3-2.8 9.5c-1.5 5.2-3.5 11.9-4.3 14.7-2 6.7-3.6 8.3-8.5 8.3-2.8 0-4.7-.7-7-2.8l-3.2-2.9 20.7-67.4c11.3-37.1 21.1-68.4 21.6-69.7.5-1.2 2-2.7 3.2-3.2 3.3-1.4 13.6-.7 15.3 1.1m121.4 1.8c11.2 4.5 18 11.5 21.8 22.5 1.6 4.6 1.8 9.3 1.8 48.1s-.2 43.5-1.8 48.1c-3.8 11-10.6 18-21.8 22.5-6.7 2.7-22.7 3.7-31.1 2-13.3-2.8-23.5-10.8-28-22-2.3-5.5-2.3-6.1-2.3-50.6s0-45.1 2.3-50.6c4.2-10.6 13-17.9 25.3-21.4 8.1-2.2 26.7-1.5 33.8 1.4m128.5-.7c.9 1.2 1.6 3.6 1.6 5.3s-.7 4.1-1.6 5.3c-1.5 2.1-2.1 2.2-19 2.2H317v63.5c0 62.2 0 63.5-2 65.5-2.5 2.5-9.5 2.7-12.8.4l-2.2-1.5V195h-17.3c-16.3 0-17.5-.1-19.2-2-1.1-1.2-1.9-3.6-1.9-5.5s.8-4.3 1.9-5.5c1.8-2 2.7-2 45.1-2h43.3zm22.3 0c1.1 1.3 8.3 14.4 15.9 29.3 7.6 14.8 15.4 30.1 17.5 33.8l3.7 6.9 17.2-33.9c9.5-18.6 18.2-34.8 19.3-36.1 3-3.2 7.8-2.9 11.9.7 3.1 2.8 3.2 3.1 2.1 6.1-.6 1.7-10.4 20.3-21.7 41.4L421 268.7v27.1c0 26.9 0 27.1-2.2 28.6-3.3 2.3-10.3 2.1-12.8-.4-1.9-1.9-2-3.3-2-28.6v-26.7l-20.6-38.3c-11.3-21.1-21.1-39.7-21.7-41.4-1.1-3-1-3.3 2.1-6.1 4.1-3.6 8.9-3.9 11.9-.7"/><path d="M83.8 242.3c-5.9 19.9-10.6 36.2-10.4 36.4s10 .2 21.8.1l21.5-.3-10.6-35.7c-5.8-19.6-10.8-35.9-11.1-36.2-.3-.2-5.3 15.8-11.2 35.7M196.8 196.3c-6.4 1.8-11.1 5.7-13.9 11.4-2.4 4.7-2.4 5.2-2.7 42.8-.2 25.7 0 39.7.8 43.2 2.5 11.5 10.8 17.7 24 17.8 9.4 0 15.7-2.3 20.3-7.4 6.1-6.8 6.2-7.6 6.2-50.6 0-30.3-.3-39.9-1.4-42.8-1.8-5.3-6.8-10.7-11.8-12.9-5.6-2.5-15.6-3.1-21.5-1.5"/></svg>